<?xml version="1.0" encoding="utf-8"?>
<!-- Generator: Adobe Illustrator 16.0.4, SVG Export Plug-In . SVG Version: 6.00 Build 0)  -->
<!DOCTYPE svg PUBLIC "-//W3C//DTD SVG 1.1//EN" "http://www.w3.org/Graphics/SVG/1.1/DTD/svg11.dtd">
<svg version="1.1" id="Layer_1" xmlns="http://www.w3.org/2000/svg" xmlns:xlink="http://www.w3.org/1999/xlink" x="0px" y="0px"
	 width="36px" height="36px" viewBox="0 0 36 36" enable-background="new 0 0 36 36" xml:space="preserve">
<path fill="#CA2B29" d="M0,31c0,2.762,2.239,5,5,5h26c2.762,0,5-2.238,5-5V5c0-2.761-2.238-5-5-5H5C2.239,0,0,2.239,0,5V31z"/>
<g>
	<g id="Small_Icons">
		<g id="Artboard_4">
			<path id="Rectangle_63" fill="#FFFFFF" d="M27.824,7.298l3.485,2.921c0.209,0.176,0.246,0.505,0.066,0.72L16.4,28.785
				c-0.118,0.142-0.282,0.2-0.44,0.179c-0.112-0.004-0.223-0.045-0.316-0.122l-9.865-8.278c-0.22-0.183-0.257-0.515-0.075-0.731
				l2.913-3.472c0.176-0.21,0.511-0.24,0.735-0.051l6.011,5.042L27.104,7.357C27.297,7.129,27.608,7.116,27.824,7.298z"/>
		</g>
	</g>
</g>
</svg>
